# xmcd
#
# Track frame offsets: 
#        150
#        6204
#        15360
#        39260
#        45730
#        61840
#        75407
#        87935
#        102352
#        116577
#        130160
#        144095
#        156337
#        168800
#        182107
#        195117
#        209117
#        223665
#        237980
#        251935
#        265755
#        280695
#        296207
#        309975
#        324122
#
# Disc length: 4522 seconds
#
# Revision: 0
# Processed by: cddbd v1.5.2PL0 Copyright (c) Steve Scherf et al.
# Submitted via: ExactAudioCopyFreeDBPlugin 1.0
#
DISCID=5211a819
DTITLE=The Southernaires - Complete Recorded Works (1938-1941)
DYEAR=1998
DGENRE=Gospel
TTITLE0=The Little Weatherbeaten Whitewashed Church
TTITLE1=Sweet Hour of Prayer
TTITLE2=What Are They Doing in Heaven Today?
TTITLE3=I Love to Tell the Story
TTITLE4=The Lord's Prayer-Closing Theme
TTITLE5=Swing Low, Sweet Chariot
TTITLE6=Go Down, Moses
TTITLE7=Couldn't Hear Nobody Pray
TTITLE8=Steal Away to Jesus
TTITLE9=Little David Play on Your Harp
TTITLE10=Roll Jordan Roll
TTITLE11=Ezekiel Saw de Wheel
TTITLE12=Joshua Fit de Battle of Jericho
TTITLE13=Gonna Shout All Over God's Heaven
TTITLE14=Nobody Knows de Trouble I've Seen
TTITLE15=Beautiful Isle of Somewhere
TTITLE16=Sweet Hour of Prayer
TTITLE17=The Lord's Prayer
TTITLE18=Yield Not to Temptation
TTITLE19=Abide with Me
TTITLE20=Jesus, Saviour, Pilot Me
TTITLE21=The Old Rugged Cross
TTITLE22=Rock of Ages
TTITLE23=Holy Ghost with Light Divine
TTITLE24=Softly and Tenderly
EXTD=
EXTT0=
EXTT1=
EXTT2=
EXTT3=
EXTT4=
EXTT5=
EXTT6=
EXTT7=
EXTT8=
EXTT9=
EXTT10=
EXTT11=
EXTT12=
EXTT13=
EXTT14=
EXTT15=
EXTT16=
EXTT17=
EXTT18=
EXTT19=
EXTT20=
EXTT21=
EXTT22=
EXTT23=
EXTT24=
PLAYORDER=
